<svg width="22" height="22" viewBox="0 0 22 22" fill="none" xmlns="http://www.w3.org/2000/svg">
<g id="svg">
<path id="Shape" fill-rule="evenodd" clip-rule="evenodd" d="M22 1.22223V2.44446L12.2222 13.4445V19.5555H17.1111C17.7908 19.5555 18.3333 20.1031 18.3333 20.7778C18.3333 21.4573 17.7834 22 17.1086 22H4.89136C4.22412 22 3.66675 21.4525 3.66675 20.7778C3.66675 20.0982 4.21411 19.5555 4.88892 19.5555H9.77783V13.4445L0 2.44446V1.22223C0 0.542664 0.543945 0 1.21362 0H20.7864C21.4561 0 22 0.547546 22 1.22223ZM5.05762 3.97833C5.51831 4.4856 6.42529 4.88892 7.09497 4.88892H14.8916C15.5542 4.88892 16.4768 4.48187 16.9353 3.97833L18.3335 2.44446H3.66675L5.05762 3.97833Z" fill="#A0B0B9"/>
</g>
</svg>
