<svg width="7" height="7" viewBox="0 0 7 7" fill="none" xmlns="http://www.w3.org/2000/svg">
<path d="M3.43965 4.62019L1.60165 6.40219C1.23052 6.75712 0.64579 6.75712 0.274654 6.40219C0.0992183 6.2343 0 6.00202 0 5.75919C0 5.51637 0.0992183 5.28408 0.274654 5.11619L2.11265 3.33419L0.274654 1.55219C0.0992183 1.3843 0 1.15202 0 0.909193C0 0.666367 0.0992183 0.434084 0.274654 0.266193C0.64579 -0.0887311 1.23052 -0.0887311 1.60165 0.266193L3.43965 2.04819L5.27765 0.266193C5.64879 -0.0887311 6.23352 -0.0887311 6.60465 0.266193C6.78009 0.434084 6.87931 0.666367 6.87931 0.909193C6.87931 1.15202 6.78009 1.3843 6.60465 1.55219L4.76665 3.33419L6.60465 5.11619C6.78009 5.28408 6.87931 5.51637 6.87931 5.75919C6.87931 6.00202 6.78009 6.2343 6.60465 6.40219C6.23352 6.75712 5.64879 6.75712 5.27765 6.40219L3.43965 4.62019Z" fill="#9AB0B9"/>
</svg>
